<?xml version="1.0" encoding="UTF-8" standalone="no" ?>
<!DOCTYPE svg PUBLIC "-//W3C//DTD SVG 1.1//EN" "http://www.w3.org/Graphics/SVG/1.1/DTD/svg11.dtd">
<svg xmlns="http://www.w3.org/2000/svg" xmlns:xlink="http://www.w3.org/1999/xlink" version="1.1" width="203.4765263780057" height="224.06595076505212" viewBox="170.2133735261038 182.60320214491725 203.4765263780057 224.06595076505212" xml:space="preserve">
<desc>Created with Fabric.js 4.6.0</desc>
<defs>
</defs>
<g transform="matrix(0.69 0 0 0.76 259.51 277.36)" id="s2hKBGUuWeXGHxOtNeMhx"  >
<path style="stroke: none; stroke-width: 1; stroke-dasharray: none; stroke-linecap: butt; stroke-dashoffset: 0; stroke-linejoin: miter; stroke-miterlimit: 4; fill: rgb(50,109,230); fill-rule: nonzero; opacity: 1;" vector-effect="non-scaling-stroke"  transform=" translate(-128.63, -124.37)" d="M 82.085 244.934 C 76.139 244.934 70.524 242.292 66.725 237.502 L 8.92 165.657 C 5.121 160.86700000000002 3.635 154.757 5.121 148.81 L 25.766 59.128 C 27.087 53.182 31.051 48.391999999999996 36.501999999999995 45.75 L 120.073 5.780000000000001 C 122.716 4.460000000000001 125.689 3.7990000000000013 128.662 3.7990000000000013 C 131.63500000000002 3.7990000000000013 134.607 4.459000000000001 137.25 5.7810000000000015 L 220.822 45.585 C 226.272 48.227000000000004 230.236 53.017 231.55700000000002 58.963 L 252.20200000000003 148.645 C 253.52400000000003 154.591 252.20200000000003 160.702 248.40400000000002 165.49200000000002 L 190.59700000000004 237.33700000000002 C 186.79800000000003 241.961 181.18300000000005 244.769 175.23700000000002 244.769 L 82.08700000000002 244.934 z" stroke-linecap="round" />
</g>
<g transform="matrix(0.69 0 0 0.76 259.25 277.49)" id="QBQV2pHRKHTapUJptl_b-"  >
<path style="stroke: none; stroke-width: 1; stroke-dasharray: none; stroke-linecap: butt; stroke-dashoffset: 0; stroke-linejoin: miter; stroke-miterlimit: 4; fill: rgb(255,255,255); fill-rule: nonzero; opacity: 1;" vector-effect="non-scaling-stroke"  transform=" translate(-128.25, -124.53)" d="M 128.495 7.928 C 130.808 7.928 133.12 8.423 135.267 9.414 L 218.839 49.218 C 223.133 51.365 226.436 55.329 227.427 59.95400000000001 L 248.072 149.63600000000002 C 249.228 154.42600000000002 248.072 159.38100000000003 244.934 163.17900000000003 L 187.128 235.02500000000003 C 184.15499999999997 238.82300000000004 179.52999999999997 240.97000000000003 174.74099999999999 240.97000000000003 L 82.085 240.97000000000003 C 77.29499999999999 240.97000000000003 72.67099999999999 238.82300000000004 69.698 235.02500000000003 L 11.891999999999996 163.17900000000003 C 8.918999999999997 159.38100000000003 7.761999999999996 154.42600000000004 8.753999999999996 149.63600000000002 L 29.398999999999994 59.95400000000002 C 30.554999999999993 55.16400000000002 33.69299999999999 51.200000000000024 37.986999999999995 49.21800000000002 L 121.56 9.25 C 123.70700000000001 8.424 126.184 7.929 128.496 7.929 z M 128.495 0.16500000000000004 C 125.027 0.16500000000000004 121.559 0.991 118.25500000000001 2.477 L 34.68400000000001 42.446999999999996 C 28.077000000000012 45.584999999999994 23.45300000000001 51.364999999999995 21.801000000000013 58.467 L 1.156 148.15 C -0.4950000000000001 155.252 1.156 162.519 5.781 168.3 L 63.586999999999996 240.145 C 68.047 245.76000000000002 74.818 248.89800000000002 81.91999999999999 248.89800000000002 L 174.575 248.89800000000002 C 181.677 248.89800000000002 188.44899999999998 245.76000000000002 192.908 240.14500000000004 L 250.71499999999997 168.29900000000004 C 255.33899999999997 162.68400000000003 256.991 155.25200000000004 255.33899999999997 148.14900000000003 L 234.69399999999996 58.46700000000003 C 233.04299999999995 51.36500000000002 228.41799999999995 45.58500000000003 221.81199999999995 42.44700000000003 L 138.57 2.476 C 135.432 0.991 131.964 0.165 128.495 0.165 z" stroke-linecap="round" />
</g>
<g transform="matrix(3.35 0 0 3.35 271.34 270.57)" id="Vm6aCMfEwxxKW70tY_ILX"  >
<path style="stroke: none; stroke-width: 1; stroke-dasharray: none; stroke-linecap: butt; stroke-dashoffset: 0; stroke-linejoin: miter; stroke-miterlimit: 4; fill: rgb(255,255,255); fill-rule: nonzero; opacity: 1;" vector-effect="non-scaling-stroke"  transform=" translate(-19.53, -13.93)" d="M 15.9 0.087 L 16.754 1.691 C 16.946 1.987 17.154 2.249 17.399 2.4930000000000003 C 18.117284091861933 3.2023261902551656 18.78680957270925 3.9593844435485956 19.40299999999999 4.758999999999995 C 20.85 6.659000000000001 21.826 8.769 22.523000000000003 11.051 C 22.941000000000003 12.445 23.168000000000003 13.875 23.185000000000002 15.321 C 23.255000000000003 19.644 21.773000000000003 23.356 18.785000000000004 26.441 C 18.2989697863816 26.93021676645569 17.773900542478913 27.379033916339388 17.215000000000003 27.782999999999998 C 16.919000000000004 27.782999999999998 16.779000000000003 27.555999999999997 16.657000000000004 27.346999999999998 C 16.434828952281027 26.959446463831895 16.28696259457257 26.53382197088669 16.221000000000004 26.092 C 16.116000000000003 25.569 16.047000000000004 25.046 16.081000000000003 24.506 L 16.081000000000003 24.262 C 16.057000000000002 24.21 15.796000000000003 0.21000000000000085 15.900000000000004 0.08699999999999974 z" stroke-linecap="round" />
</g>
<g transform="matrix(3.35 0 0 3.35 247.63 270.92)" id="GiS_5Xo5RMtOh6kzBAEJL"  >
<path style="stroke: none; stroke-width: 1; stroke-dasharray: none; stroke-linecap: butt; stroke-dashoffset: 0; stroke-linejoin: miter; stroke-miterlimit: 4; fill: rgb(255,255,255); fill-rule: nonzero; opacity: 1;" vector-effect="non-scaling-stroke"  transform=" translate(-12.45, -14.04)" d="M 15.9 0.034 C 15.865 -0.036000000000000004 15.83 0.017 15.795 0.051000000000000004 C 15.812 0.40099999999999997 15.69 0.7130000000000001 15.499 1.011 C 15.289 1.307 15.011000000000001 1.5339999999999998 14.732000000000001 1.778 C 13.182 3.12 11.962000000000002 4.741 10.985000000000001 6.554 C 9.685 8.994 9.015 11.609 8.825000000000001 14.362 C 8.738000000000001 15.355 9.139000000000001 18.859 9.452000000000002 19.87 C 10.306000000000001 22.554000000000002 11.840000000000002 24.803 13.827000000000002 26.755000000000003 C 14.315000000000001 27.225 14.837000000000002 27.661 15.377000000000002 28.080000000000002 C 15.534000000000002 28.080000000000002 15.551000000000002 27.94 15.587000000000003 27.836000000000002 C 15.655832407239279 27.613461610925 15.708305559124662 27.386189360720795 15.744000000000003 27.156000000000006 L 16.094000000000005 24.542 z" stroke-linecap="round" />
</g>
<g transform="matrix(3.35 0 0 3.35 260.46 317.77)" id="lS23gkGmH6qSW_S-iWy8v"  >
<path style="stroke: none; stroke-width: 1; stroke-dasharray: none; stroke-linecap: butt; stroke-dashoffset: 0; stroke-linejoin: miter; stroke-miterlimit: 4; fill: rgb(255,255,255); fill-rule: nonzero; opacity: 1;" vector-effect="non-scaling-stroke"  transform=" translate(-16.28, -28.03)" d="M 16.754 28.845 C 16.789 28.445 16.981 28.113 17.19 27.782 C 16.98 27.695 16.824 27.522 16.702 27.329 C 16.59680157688223 27.14626457148015 16.50972070534719 26.95368187481612 16.442 26.754 C 16.198 26.022000000000002 16.146 25.254 16.076 24.506 L 16.076 24.053 C 15.989 24.123 15.971 24.715 15.971 24.803 C 15.920113686257958 25.593576087247712 15.815202088345895 26.379744844849874 15.657 27.156000000000002 C 15.605 27.470000000000002 15.57 27.783 15.377 28.062 C 15.377 28.097 15.377 28.132 15.394 28.184 C 15.708 29.108 15.794 30.049 15.847 31.008000000000003 L 15.847 31.358000000000004 C 15.847 31.776000000000003 15.83 31.688000000000002 16.177 31.828000000000003 C 16.317 31.880000000000003 16.473 31.898000000000003 16.613 32.002 C 16.718 32.002 16.735 31.915000000000003 16.735 31.845000000000002 L 16.683 31.270000000000003 L 16.683 29.666000000000004 C 16.666 29.386000000000003 16.718 29.108000000000004 16.753 28.846000000000004 z" stroke-linecap="round" />
</g>
<g transform="matrix(1 0 0 1 259.25 380.78)" style="" id="97062dEJsxSFadY5rZ0oj"  >
		<text xml:space="preserve" font-family="Open Sans" font-size="14" font-style="normal" font-weight="700" line-height="1.16" style="stroke: none; stroke-width: 1; stroke-dasharray: none; stroke-linecap: butt; stroke-dashoffset: 0; stroke-linejoin: miter; stroke-miterlimit: 4; fill: rgb(12,119,190); fill-rule: nonzero; opacity: 1; white-space: pre;" ><tspan x="-69.99" y="4.4" >MongoDB Operator</tspan></text>
</g>
<g transform="matrix(1 0 0 1 298.19 399.95)" style="" id="_DAeEr_X3x2V4teQaBz0t"  >
		<text xml:space="preserve" font-family="Open Sans" font-size="11" font-style="normal" font-weight="600" line-height="1.16" style="stroke: none; stroke-width: 1; stroke-dasharray: none; stroke-linecap: butt; stroke-dashoffset: 0; stroke-linejoin: miter; stroke-miterlimit: 4; fill: rgb(37,118,171); fill-rule: nonzero; opacity: 1; white-space: pre;" ><tspan x="-75" y="3.46" >By Opstree Solutions</tspan></text>
</g>
</svg>